# xmcd
#
# Track frame offsets:
#	150
#	17984
#	36504
#	59697
#	74891
#	92752
#	114042
#	129025
#	148057
#	163863
#	181316
#	199328
#	215250
#	230950
#	245841
#	260859
#	275869
#	291918
#	308387
#	323251
#
# Disc length: 4528
#
# Revision: 7
# Processed by: cddbd v1.5.1PL0 Copyright (c) Steve Scherf et al.
# Submitted via: ExactAudioCopy v0.90b4
# Normalized: r6:DSETVAR1
#
DISCID=2911ae14,4011ae14
DTITLE=Various Artist - BRAVO Hits Vol.30 [CD 2)
DYEAR=2000
DGENRE=Pop
TTITLE0=Das Bo - türlich türlich (sicher, Dicker)
TTITLE1=Xavier Naidoo - Seine Strassen
TTITLE2=Echt - Junimond
TTITLE3=Verena - Ist das alles?
TTITLE4=Fünf Sterne Deluxe - Die Leude
TTITLE5=DJ Tomek - Ich lebe für HipHop
TTITLE6=Mary Mary - Shakles (Praise You)
TTITLE7=Mya feat. Jadakiss - The Best Of Me
TTITLE8=The Underdog Project - Summer Jam
TTITLE9=Craig David - Fill Me In
TTITLE10=Artful Dodger and Robbie Craig - Woman Trouble
TTITLE11=DJ Luck and Mc Neat - Masterblaster 2000
TTITLE12=Sisqo - Thong Song
TTITLE13=Black Legend - You See The Trouble With Me
TTITLE14=Southside Rockers - Jump
TTITLE15=King Africa - La Bomba
TTITLE16=Joakino - Venga Venga
TTITLE17=Dejay Ötzi - Hey Baby
TTITLE18=Soap Allstars - Only With You
TTITLE19=Nils - Du and Ich
EXTD=
EXTT0=
EXTT1=
EXTT2=
EXTT3=
EXTT4=
EXTT5=
EXTT6=
EXTT7=
EXTT8=
EXTT9=
EXTT10=
EXTT11=
EXTT12=
EXTT13=
EXTT14=
EXTT15=
EXTT16=
EXTT17=
EXTT18=
EXTT19=
PLAYORDER=
